<?xml version="1.0" encoding="utf-8"?>
<svg xmlns="http://www.w3.org/2000/svg" fill="none" height="61" viewBox="0 0 61 61" width="61">
  <path d="M44.0081 17.0111C46.0218 18.9529 48.935 19.914 53.232 20.6721C48.935 21.4304 46.0218 22.3915 44.008 24.3333C41.9642 26.304 40.9642 29.1708 40.1721 33.4059C39.3798 29.1708 38.3799 26.304 36.3361 24.3331C34.3224 22.3913 31.4092 21.4303 27.1122 20.6721C31.4092 19.9138 34.3225 18.9528 36.3362 17.011C38.3801 15.0402 39.38 12.1735 40.1721 7.93835C40.9644 12.1735 41.9644 15.0403 44.0081 17.0111Z" stroke="#EBEAE1" stroke-width="1.5"/>
  <path d="M33.2024 10.1721H15.1721C12.4107 10.1721 10.1721 12.4107 10.1721 15.1721L10.1721 45.1721C10.1721 47.9335 12.4107 50.1721 15.1721 50.1721H45.1721C47.9335 50.1721 50.1721 47.9335 50.1721 45.1721V29.1721" stroke="#EBEAE1" stroke-width="1.5"/>
  <path d="M51.8533 8.49097C52.3969 9.03453 53.0774 9.39955 53.9089 9.67214C53.0774 9.94475 52.3968 10.3098 51.8533 10.8533C51.3097 11.3969 50.9447 12.0774 50.6721 12.9089C50.3995 12.0774 50.0345 11.3968 49.4909 10.8533C48.9474 10.3097 48.2669 9.94469 47.4353 9.67209C48.2669 9.39949 48.9474 9.03448 49.491 8.49093C50.0345 7.94738 50.3996 7.26687 50.6721 6.43533C50.9447 7.26689 51.3098 7.94741 51.8533 8.49097Z" stroke="#EBEAE1" stroke-width="1.5"/>
</svg>