<?xml version="1.0" encoding="utf-8"?>
<svg xmlns="http://www.w3.org/2000/svg" fill="none" height="36" viewBox="0 0 81 36" width="81">
  <g clip-path="url(#clip0_178_2000)">
    <path d="M0 35.7989V27.7593H2.80892C3.37998 27.7593 3.83935 27.8408 4.18493 28.0037C4.53052 28.1667 4.80024 28.4157 4.99621 28.7552C5.19218 29.0924 5.28911 29.4478 5.28911 29.8167C5.28911 30.1608 5.20272 30.4844 5.02782 30.7877C4.85292 31.091 4.59163 31.3355 4.24183 31.5233C4.69488 31.6659 5.04257 31.9081 5.2849 32.2521C5.52723 32.5962 5.64945 33.0013 5.64945 33.4699C5.64945 33.8456 5.5757 34.1964 5.42819 34.5201C5.28069 34.8437 5.09736 35.0927 4.88032 35.2693C4.66327 35.4458 4.38933 35.5771 4.06061 35.6676C3.73188 35.7582 3.3294 35.8012 2.85317 35.8012H0V35.7989ZM0.990392 31.1385H2.60874C3.04704 31.1385 3.36312 31.1069 3.55277 31.0458C3.80353 30.9643 3.99528 30.8307 4.12172 30.6451C4.25026 30.4595 4.31347 30.2241 4.31347 29.9435C4.31347 29.6764 4.25447 29.441 4.13436 29.2395C4.01425 29.0358 3.84567 28.8978 3.62441 28.8231C3.40316 28.7484 3.02386 28.7099 2.48652 28.7099H0.990392V31.1385ZM0.990392 34.8505H2.85317C3.17347 34.8505 3.39684 34.837 3.52748 34.8121C3.75506 34.7691 3.94682 34.6944 4.09854 34.5925C4.25236 34.4907 4.37669 34.3413 4.47573 34.1466C4.57477 33.952 4.62324 33.7256 4.62324 33.4699C4.62324 33.1711 4.55159 32.9085 4.4083 32.689C4.26501 32.4672 4.06693 32.3133 3.81406 32.2227C3.5612 32.1322 3.19454 32.0892 2.71831 32.0892H0.988285V34.8505H0.990392Z" fill="white"/>
    <path d="M10.9322 35.799V34.9434C10.5108 35.6021 9.93763 35.9303 9.21064 35.9303C8.89034 35.9303 8.59112 35.8646 8.31507 35.7333C8.03692 35.6021 7.83252 35.4368 7.69766 35.2377C7.5628 35.0385 7.46797 34.794 7.41529 34.5043C7.37736 34.3097 7.3584 34.0041 7.3584 33.5831V29.9752H8.27715V33.2051C8.27715 33.7212 8.29611 34.0675 8.33404 34.2463C8.39094 34.5066 8.51526 34.7103 8.7007 34.8574C8.88824 35.0045 9.12004 35.0792 9.39608 35.0792C9.67213 35.0792 9.93131 35.0023 10.1715 34.8506C10.4139 34.699 10.5845 34.493 10.6836 34.2304C10.7847 33.9679 10.8332 33.5899 10.8332 33.0919V29.9707H11.7519V35.7944H10.9322V35.799Z" fill="white"/>
    <path d="M12.8267 34.0606L13.7349 33.9067C13.7854 34.2983 13.9287 34.597 14.1605 34.8053C14.3944 35.0135 14.7189 35.1176 15.1383 35.1176C15.5597 35.1176 15.8737 35.0248 16.0781 34.8415C16.2825 34.6559 16.3836 34.4409 16.3836 34.1919C16.3836 33.9701 16.293 33.7935 16.1139 33.6645C15.9875 33.5762 15.6756 33.4653 15.1741 33.3295C14.4998 33.1462 14.032 32.9878 13.7728 32.8542C13.5115 32.7207 13.3155 32.5351 13.1807 32.2997C13.0458 32.0643 12.9784 31.804 12.9784 31.5188C12.9784 31.2585 13.0332 31.0186 13.1448 30.7968C13.2565 30.575 13.4061 30.3916 13.5958 30.2445C13.7391 30.1313 13.9329 30.0363 14.1795 29.9571C14.426 29.8778 14.6915 29.8394 14.9739 29.8394C15.3996 29.8394 15.7725 29.905 16.095 30.0363C16.4174 30.1675 16.6534 30.3464 16.8072 30.5704C16.961 30.7945 17.0664 31.0955 17.1233 31.4735L16.2256 31.6048C16.1856 31.306 16.0676 31.0707 15.8716 30.9032C15.6756 30.7357 15.3996 30.6519 15.0413 30.6519C14.6199 30.6519 14.3186 30.7266 14.1373 30.876C13.9561 31.0254 13.8676 31.2019 13.8676 31.4034C13.8676 31.5324 13.9056 31.6456 13.9793 31.7497C14.0552 31.8561 14.1711 31.9443 14.3312 32.0122C14.4239 32.0484 14.6937 32.1322 15.1425 32.2635C15.7936 32.4491 16.2467 32.603 16.5038 32.7207C16.7608 32.8406 16.9631 33.0127 17.1085 33.239C17.2539 33.4653 17.3277 33.746 17.3277 34.0832C17.3277 34.4114 17.2392 34.7215 17.0601 35.0135C16.8809 35.3032 16.6239 35.5296 16.2867 35.688C15.9496 35.8464 15.5681 35.9257 15.1425 35.9257C14.4387 35.9257 13.9013 35.7695 13.5326 35.4549C13.1638 35.1448 12.9278 34.6785 12.8267 34.0606Z" fill="white"/>
    <path d="M18.4276 28.8955V27.7593H19.3464V28.8955H18.4276ZM18.4276 35.7989V29.9752H19.3464V35.7989H18.4276Z" fill="white"/>
    <path d="M20.7435 35.7988V29.975H21.5695V30.8034C21.9678 30.1629 22.543 29.8438 23.2953 29.8438C23.6219 29.8438 23.9233 29.9071 24.1972 30.0339C24.4711 30.1606 24.6755 30.3259 24.8125 30.5296C24.9495 30.7333 25.0443 30.9777 25.0991 31.2584C25.1328 31.4417 25.1497 31.7609 25.1497 32.2181V35.7988H24.2309V32.2565C24.2309 31.8537 24.1951 31.5549 24.1234 31.3534C24.0518 31.1543 23.9254 30.9958 23.742 30.8759C23.5608 30.7582 23.3459 30.6971 23.1014 30.6971C22.7095 30.6971 22.3723 30.8306 22.0879 31.0977C21.8034 31.3648 21.6622 31.8718 21.6622 32.6164V35.7965H20.7435V35.7988Z" fill="white"/>
    <path d="M30.2723 33.9247L31.2227 34.0514C31.073 34.6467 30.7949 35.1107 30.3903 35.4389C29.9857 35.7671 29.4673 35.9323 28.8373 35.9323C28.045 35.9323 27.4149 35.6698 26.9513 35.1447C26.4856 34.6195 26.2538 33.8839 26.2538 32.9378C26.2538 31.9578 26.4877 31.1973 26.9577 30.6563C27.4276 30.1154 28.0365 29.8438 28.7846 29.8438C29.5095 29.8438 30.1016 30.1086 30.561 30.6382C31.0204 31.1678 31.2501 31.9148 31.2501 32.8745C31.2501 32.9333 31.2479 33.0216 31.2458 33.137H27.2021C27.2358 33.7776 27.4044 34.2665 27.7078 34.606C28.0113 34.9455 28.3885 35.1152 28.8415 35.1152C29.1787 35.1152 29.4652 35.0202 29.7055 34.83C29.9436 34.6444 30.1311 34.3412 30.2723 33.9247ZM27.2548 32.329H30.2828C30.2428 31.8401 30.1269 31.4711 29.9352 31.2267C29.6423 30.8464 29.2629 30.6563 28.7973 30.6563C28.3758 30.6563 28.0197 30.808 27.7331 31.1113C27.4444 31.4146 27.2843 31.8197 27.2548 32.329Z" fill="white"/>
    <path d="M32.0065 34.0606L32.9147 33.9067C32.9653 34.2983 33.1086 34.597 33.3404 34.8053C33.5743 35.0135 33.8988 35.1176 34.3181 35.1176C34.7396 35.1176 35.0536 35.0248 35.258 34.8415C35.4624 34.6559 35.5635 34.4409 35.5635 34.1919C35.5635 33.9701 35.4729 33.7935 35.2938 33.6645C35.1674 33.5762 34.8555 33.4653 34.354 33.3295C33.6797 33.1462 33.2119 32.9878 32.9527 32.8542C32.6914 32.7207 32.4954 32.5351 32.3605 32.2997C32.2257 32.0643 32.1583 31.804 32.1583 31.5188C32.1583 31.2585 32.213 31.0186 32.3247 30.7968C32.4364 30.575 32.586 30.3916 32.7757 30.2445C32.919 30.1313 33.1128 30.0363 33.3594 29.9571C33.6059 29.8778 33.8714 29.8394 34.1538 29.8394C34.5794 29.8394 34.9524 29.905 35.2748 30.0363C35.5972 30.1675 35.8332 30.3464 35.9871 30.5704C36.1409 30.7945 36.2462 31.0955 36.3031 31.4735L35.4055 31.6048C35.3654 31.306 35.2474 31.0707 35.0515 30.9032C34.8555 30.7357 34.5794 30.6519 34.2212 30.6519C33.7998 30.6519 33.4984 30.7266 33.3172 30.876C33.136 31.0254 33.0475 31.2019 33.0475 31.4034C33.0475 31.5324 33.0854 31.6456 33.1592 31.7497C33.235 31.8561 33.3509 31.9443 33.5111 32.0122C33.6038 32.0484 33.8735 32.1322 34.3224 32.2635C34.9735 32.4491 35.4265 32.603 35.6836 32.7207C35.9407 32.8406 36.143 33.0127 36.2884 33.239C36.4338 33.4653 36.5075 33.746 36.5075 34.0832C36.5075 34.4114 36.419 34.7215 36.2399 35.0135C36.0608 35.3032 35.8037 35.5296 35.4666 35.688C35.1294 35.8464 34.748 35.9257 34.3224 35.9257C33.6186 35.9257 33.0812 35.7695 32.7124 35.4549C32.3458 35.1448 32.1098 34.6785 32.0065 34.0606Z" fill="white"/>
    <path d="M37.2345 34.0606L38.1427 33.9067C38.1933 34.2983 38.3366 34.597 38.5684 34.8053C38.8023 35.0135 39.1268 35.1176 39.5461 35.1176C39.9676 35.1176 40.2816 35.0248 40.486 34.8415C40.6904 34.6559 40.7915 34.4409 40.7915 34.1919C40.7915 33.9701 40.7009 33.7935 40.5218 33.6645C40.3954 33.5762 40.0835 33.4653 39.582 33.3295C38.9077 33.1462 38.4399 32.9878 38.1807 32.8542C37.9194 32.7207 37.7234 32.5351 37.5885 32.2997C37.4537 32.0643 37.3862 31.804 37.3862 31.5188C37.3862 31.2585 37.441 31.0186 37.5527 30.7968C37.6644 30.575 37.814 30.3916 38.0037 30.2445C38.147 30.1313 38.3408 30.0363 38.5874 29.9571C38.8339 29.8778 39.0994 29.8394 39.3818 29.8394C39.8074 29.8394 40.1804 29.905 40.5028 30.0363C40.8252 30.1675 41.0612 30.3464 41.2151 30.5704C41.3689 30.7945 41.4743 31.0955 41.5311 31.4735L40.6335 31.6048C40.5934 31.306 40.4754 31.0707 40.2795 30.9032C40.0835 30.7357 39.8074 30.6519 39.4492 30.6519C39.0278 30.6519 38.7264 30.7266 38.5452 30.876C38.364 31.0254 38.2755 31.2019 38.2755 31.4034C38.2755 31.5324 38.3134 31.6456 38.3872 31.7497C38.463 31.8561 38.5789 31.9443 38.7391 32.0122C38.8318 32.0484 39.1015 32.1322 39.5504 32.2635C40.2015 32.4491 40.6545 32.603 40.9116 32.7207C41.1687 32.8406 41.371 33.0127 41.5164 33.239C41.6618 33.4653 41.7355 33.746 41.7355 34.0832C41.7355 34.4114 41.647 34.7215 41.4679 35.0135C41.2888 35.3032 41.0317 35.5296 40.6946 35.688C40.3574 35.8464 39.976 35.9257 39.5504 35.9257C38.8465 35.9257 38.3092 35.7695 37.9404 35.4549C37.5738 35.1448 37.3378 34.6785 37.2345 34.0606Z" fill="white"/>
    <path d="M46.441 35.7989V27.7593H49.2646C49.762 27.7593 50.1413 27.7842 50.4025 27.8362C50.7713 27.9019 51.079 28.0264 51.3276 28.212C51.5763 28.3976 51.7765 28.6556 51.9282 28.9883C52.0799 29.321 52.1558 29.6877 52.1558 30.0861C52.1558 30.7696 51.9535 31.349 51.5489 31.8221C51.1443 32.2952 50.411 32.5328 49.3532 32.5328H47.4335V35.8012H46.441V35.7989ZM47.4314 31.5822H49.3658C50.0064 31.5822 50.4594 31.4554 50.7292 31.1974C50.9989 30.9416 51.1316 30.5818 51.1316 30.1178C51.1316 29.7805 51.0516 29.4931 50.8935 29.2531C50.7355 29.0132 50.5269 28.8548 50.2677 28.7778C50.1012 28.7303 49.7936 28.7054 49.3426 28.7054H47.4272V31.5822H47.4314Z" fill="white"/>
    <path d="M56.9539 35.0815C56.6146 35.3915 56.2859 35.6111 55.9719 35.7401C55.658 35.8669 55.3187 35.9325 54.9584 35.9325C54.362 35.9325 53.9047 35.7763 53.5844 35.464C53.2642 35.1516 53.104 34.751 53.104 34.2666C53.104 33.9814 53.1651 33.7212 53.2852 33.4858C53.4053 33.2504 53.5634 33.0602 53.7594 32.9176C53.9553 32.775 54.1745 32.6664 54.421 32.594C54.6022 32.5419 54.8741 32.4921 55.2386 32.4446C55.9804 32.3495 56.5261 32.2364 56.878 32.1051C56.8822 31.9693 56.8822 31.8833 56.8822 31.847C56.8822 31.4442 56.7958 31.1612 56.621 30.996C56.387 30.7742 56.0373 30.661 55.5737 30.661C55.1417 30.661 54.8214 30.7425 54.617 30.9055C54.4105 31.0684 54.2588 31.3559 54.1597 31.7701L53.262 31.6388C53.3442 31.2269 53.4791 30.8919 53.6645 30.6384C53.8521 30.3849 54.1218 30.188 54.4758 30.0522C54.8298 29.9141 55.2407 29.8462 55.7064 29.8462C56.17 29.8462 56.5451 29.905 56.8338 30.0227C57.1225 30.1404 57.3353 30.2876 57.4723 30.4641C57.6092 30.6407 57.7041 30.8647 57.7588 31.1363C57.7883 31.3038 57.8052 31.6071 57.8052 32.0462V33.3613C57.8052 34.2779 57.8242 34.8596 57.8642 35.1018C57.9042 35.344 57.9801 35.5771 58.096 35.8012H57.1372C57.0424 35.5952 56.9813 35.3553 56.9539 35.0815ZM56.878 32.8769C56.5451 33.024 56.0436 33.1485 55.3777 33.2504C55.0005 33.3092 54.7329 33.3748 54.5769 33.4473C54.421 33.5197 54.2988 33.6284 54.2145 33.7687C54.1302 33.909 54.086 34.0652 54.086 34.2372C54.086 34.4998 54.1787 34.7193 54.3641 34.8959C54.5496 35.0701 54.8214 35.1584 55.1796 35.1584C55.5336 35.1584 55.8476 35.0747 56.1237 34.9094C56.3997 34.7442 56.602 34.5156 56.7305 34.2259C56.8296 34.0041 56.878 33.6736 56.878 33.239V32.8769Z" fill="white"/>
    <path d="M59.1412 35.7988V29.975H59.9693V30.8578C60.18 30.4458 60.376 30.172 60.553 30.0407C60.7321 29.9094 60.9281 29.8438 61.143 29.8438C61.4528 29.8438 61.7668 29.9501 62.0871 30.1629L61.771 31.0796C61.5455 30.937 61.3221 30.8645 61.0967 30.8645C60.8965 30.8645 60.7153 30.9302 60.5551 31.0592C60.395 31.1882 60.2812 31.3693 60.2137 31.6002C60.1126 31.951 60.0599 32.3358 60.0599 32.7522V35.801H59.1412V35.7988Z" fill="white"/>
    <path d="M65.2668 34.9159L65.3996 35.7874C65.1404 35.8462 64.9086 35.8756 64.7042 35.8756C64.3713 35.8756 64.1121 35.819 63.9288 35.7059C63.7454 35.5927 63.6148 35.4433 63.541 35.26C63.4652 35.0744 63.4293 34.6873 63.4293 34.0943V30.7445H62.755V29.9772H63.4293V28.5354L64.3439 27.9424V29.9772H65.2689V30.7445H64.3439V34.1509C64.3439 34.4316 64.3607 34.6127 64.3923 34.6941C64.4239 34.7756 64.4766 34.839 64.5504 34.8865C64.6241 34.9341 64.7274 34.959 64.8644 34.959C64.9655 34.9544 65.1004 34.9431 65.2668 34.9159Z" fill="white"/>
    <path d="M66.1666 35.7988V29.975H66.9927V30.8034C67.3909 30.1629 67.9662 29.8438 68.7185 29.8438C69.0451 29.8438 69.3464 29.9071 69.6203 30.0339C69.8943 30.1606 70.0987 30.3259 70.2357 30.5296C70.3726 30.7333 70.4675 30.9777 70.5222 31.2584C70.556 31.4417 70.5728 31.7609 70.5728 32.2181V35.7988H69.6541V32.2565C69.6541 31.8537 69.6182 31.5549 69.5466 31.3534C69.475 31.1543 69.3485 30.9958 69.1652 30.8759C68.984 30.7582 68.769 30.6971 68.5246 30.6971C68.1327 30.6971 67.7955 30.8306 67.511 31.0977C67.2266 31.3648 67.0854 31.8718 67.0854 32.6164V35.7965H66.1666V35.7988Z" fill="white"/>
    <path d="M75.6934 33.9247L76.6437 34.0514C76.4941 34.6467 76.216 35.1107 75.8114 35.4389C75.4068 35.7671 74.8884 35.9323 74.2583 35.9323C73.466 35.9323 72.836 35.6698 72.3724 35.1447C71.9088 34.6195 71.6749 33.8839 71.6749 32.9378C71.6749 31.9578 71.9088 31.1973 72.3787 30.6563C72.8486 30.1154 73.4576 29.8438 74.2057 29.8438C74.9305 29.8438 75.5227 30.1086 75.982 30.6382C76.4414 31.1678 76.6711 31.9148 76.6711 32.8745C76.6711 32.9333 76.669 33.0216 76.6669 33.137H72.6231C72.6569 33.7776 72.8254 34.2665 73.1289 34.606C73.4323 34.9455 73.8095 35.1152 74.2626 35.1152C74.5997 35.1152 74.8863 35.0202 75.1265 34.83C75.3646 34.6444 75.5543 34.3412 75.6934 33.9247ZM72.6758 32.329H75.7039C75.6639 31.8401 75.548 31.4711 75.3562 31.2267C75.0633 30.8464 74.684 30.6563 74.2183 30.6563C73.7969 30.6563 73.4407 30.808 73.1542 31.1113C72.8655 31.4146 72.7053 31.8197 72.6758 32.329Z" fill="white"/>
    <path d="M77.7858 35.7988V29.975H78.6119V30.8578C78.8226 30.4458 79.0186 30.172 79.1956 30.0407C79.3747 29.9094 79.5707 29.8438 79.7856 29.8438C80.0953 29.8438 80.4093 29.9501 80.7296 30.1629L80.4135 31.0796C80.1881 30.937 79.9647 30.8645 79.7392 30.8645C79.539 30.8645 79.3578 30.9302 79.1977 31.0592C79.0375 31.1882 78.9237 31.3693 78.8563 31.6002C78.7552 31.951 78.7025 32.3358 78.7025 32.7522V35.801H77.7858V35.7988Z" fill="white"/>
    <g clip-path="url(#clip1_178_2000)">
      <path d="M2.86961 15.0975C2.86961 16.0994 3.07592 16.8686 3.34557 17.334C3.69913 17.9435 4.22646 18.2018 4.76406 18.2018C5.45747 18.2018 6.09181 18.0184 7.31426 16.2162C8.29358 14.7718 9.44755 12.7443 10.224 11.4732L11.5389 9.31974C12.4523 7.8242 13.5095 6.16167 14.7217 5.03476C15.7113 4.11499 16.7788 3.604 17.8532 3.604C19.6569 3.604 21.375 4.71813 22.6899 6.8077C24.1289 9.09618 24.8275 11.9787 24.8275 14.9534C24.8275 16.7217 24.5005 18.0211 23.944 19.0476C23.4064 20.0404 22.3586 21.0323 20.596 21.0323V18.2018C22.1052 18.2018 22.4819 16.7236 22.4819 15.0318C22.4819 12.6211 21.9545 9.9457 20.7929 8.03406C19.9685 6.67813 18.9001 5.8496 17.7248 5.8496C16.4535 5.8496 15.4305 6.87157 14.2808 8.69378C13.6696 9.66192 13.0421 10.8417 12.3376 12.173L11.562 13.6376C10.004 16.5821 9.60934 17.2528 8.83033 18.3596C7.46492 20.2977 6.29897 21.0323 4.76406 21.0323C2.94323 21.0323 1.79183 20.1919 1.07874 18.9254C0.496616 17.8933 0.210693 16.5392 0.210693 14.9962L2.86961 15.0975Z" fill="#0081FB"/>
      <path d="M2.30719 7.00753C3.52622 5.00465 5.28541 3.604 7.30314 3.604C8.47166 3.604 9.63333 3.97264 10.8464 5.02838C12.1733 6.18266 13.5875 8.08334 15.3518 11.2159L15.9844 12.34C17.5116 15.0519 18.3805 16.4471 18.889 17.105C19.543 17.9499 20.001 18.2018 20.596 18.2018C22.1052 18.2018 22.4819 16.7236 22.4819 15.0318L24.8275 14.9534C24.8275 16.7217 24.5005 18.0211 23.944 19.0476C23.4064 20.0404 22.3586 21.0323 20.596 21.0323C19.5002 21.0323 18.5295 20.7786 17.456 19.6991C16.6307 18.8706 15.666 17.3988 14.9238 16.0757L12.716 12.1448C11.6083 10.172 10.5921 8.70108 10.004 8.03498C9.37138 7.31869 8.55812 6.45366 7.26034 6.45366C6.20996 6.45366 5.31794 7.2393 4.57146 8.44103L2.30719 7.00753Z" fill="url(#paint0_linear_178_2000)"/>
      <path d="M7.26032 6.45366C6.20994 6.45366 5.31793 7.2393 4.57145 8.44103C3.51593 10.1391 2.86961 12.6685 2.86961 15.0975C2.86961 16.0994 3.07592 16.8686 3.34557 17.334L1.07874 18.9254C0.496616 17.8933 0.210693 16.5392 0.210693 14.9962C0.210693 12.1904 0.933206 9.2659 2.30718 7.00753C3.5262 5.00465 5.2854 3.604 7.30313 3.604L7.26032 6.45366Z" fill="url(#paint1_linear_178_2000)"/>
    </g>
    <path d="M29.7735 4.16064H32.8229L38.0092 14.2362L43.1936 4.16064H46.1792V20.7274H43.6888V8.02533L39.1414 16.8119H36.8133L32.2598 8.02533V20.7274H29.7735V4.16064Z" fill="white"/>
    <path d="M54.1992 21.0075C53.1369 21.0318 52.0869 20.7492 51.1601 20.1886C50.295 19.6479 49.5882 18.8599 49.1176 17.9131C48.6162 16.8846 48.3656 15.7368 48.3861 14.5759C48.3635 13.4061 48.608 12.2496 49.0991 11.2056C49.5512 10.2587 50.2396 9.46417 51.0882 8.9146C51.9718 8.34957 52.9848 8.06264 54.0122 8.08471C56.0218 7.99864 57.8732 9.25891 58.6561 11.2497C59.1041 12.3621 59.3219 13.565 59.2952 14.7767V15.5073H50.8519C50.9608 16.4211 51.3656 17.2642 51.9923 17.891C52.6273 18.4825 53.4471 18.7937 54.2876 18.7606C54.941 18.7761 55.5924 18.6547 56.2027 18.4031C56.7636 18.1492 57.2753 17.7851 57.7109 17.326L59.0301 19.0674C57.7191 20.363 55.9849 21.0582 54.1992 21.0075ZM56.0177 11.1968C55.4732 10.6119 54.7252 10.3007 53.9547 10.3382C53.1862 10.3161 52.4403 10.6317 51.8916 11.2122C51.3122 11.8545 50.9423 12.68 50.8396 13.5672H56.9095C56.8869 12.6866 56.5725 11.8435 56.0198 11.1902L56.0177 11.1968Z" fill="white"/>
    <path d="M62.3178 10.5699H60.0246V8.38264H62.3178V4.76074H64.7158V8.38264H68.1926V10.5721H64.7158V16.1142C64.7158 17.0346 64.8617 17.6923 65.1555 18.0896C65.4473 18.4869 65.9507 18.6833 66.6638 18.6789C66.9329 18.6811 67.2001 18.6679 67.4693 18.637C67.6912 18.6127 67.9316 18.573 68.1946 18.5266V20.6896C67.8946 20.7845 67.5884 20.8552 67.2782 20.9059C66.9227 20.9611 66.5631 20.9898 66.2035 20.9876C63.6123 20.9876 62.3178 19.4669 62.3199 16.4232L62.3178 10.5699Z" fill="white"/>
    <path d="M80.7044 20.7271H78.3475V19.0011C77.9407 19.6368 77.392 20.1488 76.7509 20.4954C76.0666 20.8551 75.3125 21.0361 74.5502 21.0207C73.5967 21.0405 72.6577 20.7492 71.8604 20.1886C71.0631 19.6169 70.4261 18.8246 70.0152 17.8931C69.5528 16.8514 69.3227 15.7081 69.3433 14.5538C69.3207 13.395 69.5549 12.2495 70.0275 11.2077C70.4508 10.2763 71.1022 9.48617 71.9138 8.92556C72.7419 8.36495 73.7057 8.07582 74.6837 8.09569C75.4132 8.08244 76.1365 8.25019 76.7961 8.58567C77.4105 8.90129 77.9447 9.37361 78.3496 9.96292V8.3804H80.7064V20.7271H80.7044ZM78.3023 12.7086C78.066 12.0332 77.6406 11.4527 77.0858 11.0466C76.5187 10.6361 75.8488 10.4242 75.1646 10.4397C74.2337 10.3955 73.3317 10.8016 72.7091 11.5476C72.1029 12.2892 71.7967 13.2891 71.7947 14.5515C71.7926 15.814 72.0864 16.8183 72.6782 17.5643C73.2721 18.3103 74.1536 18.723 75.068 18.6789C75.7728 18.6855 76.4632 18.4648 77.0489 18.0454C77.6201 17.6504 78.0598 17.0699 78.3043 16.3901L78.3023 12.7086Z" fill="white"/>
  </g>
  <defs>
    <linearGradient gradientUnits="userSpaceOnUse" id="paint0_linear_178_2000" x1="5.43266" x2="22.3878" y1="14.2799" y2="15.0833">
      <stop stop-color="#0064E1"/>
      <stop offset="0.4" stop-color="#0064E1"/>
      <stop offset="0.83" stop-color="#0073EE"/>
      <stop offset="1" stop-color="#0082FB"/>
    </linearGradient>
    <linearGradient gradientUnits="userSpaceOnUse" id="paint1_linear_178_2000" x1="4.06295" x2="4.06295" y1="16.2874" y2="9.62633">
      <stop stop-color="#0082FB"/>
      <stop offset="1" stop-color="#0064E0"/>
    </linearGradient>
    <clipPath id="clip0_178_2000">
      <rect fill="white" height="35.0828" transform="translate(0 0.887695)" width="80.9172"/>
    </clipPath>
    <clipPath id="clip1_178_2000">
      <rect fill="white" height="17.4283" transform="translate(0.210693 3.604)" width="24.6544"/>
    </clipPath>
  </defs>
</svg>