<?xml version="1.0" encoding="utf-8"?>
<svg xmlns="http://www.w3.org/2000/svg" fill="none" height="61" viewBox="0 0 87 61" width="87">
  <g clip-path="url(#clip0_178_2032)">
    <path d="M46.1473 48.613C47.2831 48.5763 48.4189 48.5763 49.5547 48.613C50.434 48.613 51.2401 49.1646 51.7347 49.8817C52.1377 50.5068 52.156 51.279 52.0461 51.9961C51.9362 52.7131 51.405 53.2831 50.8371 53.6876C49.8112 54.3311 48.5838 54.0369 47.448 54.1105C47.3381 55.3056 47.448 56.5191 47.4114 57.7141C46.99 57.7509 46.5687 57.7509 46.1473 57.7141C46.129 54.6804 46.1107 51.6467 46.1473 48.613ZM47.4297 49.8817C47.3564 50.8561 47.3381 51.849 47.4114 52.8418C48.1991 52.8418 48.9868 52.897 49.7745 52.8051C50.8371 52.4373 51.1118 50.8929 50.2508 50.1758C49.4265 49.6426 48.364 49.9552 47.4297 49.8817ZM65.0894 51.0768C65.1077 50.5068 65.0345 49.9368 65.1627 49.3852C65.5657 49.3852 65.9687 49.3852 66.3901 49.4036C66.4267 49.9552 66.3901 50.5068 66.4267 51.0584C66.8481 51.279 67.3976 51.1135 67.8923 51.1871C67.9106 51.5732 67.9106 51.9593 67.8923 52.3638C67.3976 52.3822 66.903 52.4006 66.4267 52.4557C66.4267 53.6324 66.4084 54.8091 66.4267 56.0042C66.4084 56.3168 66.555 56.6661 66.8847 56.7397C67.2511 56.7397 67.6175 56.7397 67.9838 56.7029C68.0205 57.1074 67.9838 57.5119 67.8923 57.898C67.306 57.9348 66.7015 58.0083 66.1153 57.8428C65.6573 57.5671 65.181 57.1442 65.1627 56.5742C65.0345 55.2136 65.1993 53.8531 65.0711 52.4925C64.7047 52.4373 64.32 52.3822 63.9536 52.327C63.9536 51.9593 63.9536 51.5916 63.9719 51.2238C64.3383 51.1503 64.7413 51.1871 65.0894 51.0768ZM53.1453 52.3454C54.1528 50.4516 57.3587 50.4516 58.3846 52.3454C58.6777 52.9705 58.6044 53.6876 58.6227 54.3495C58.6044 55.471 58.6411 56.5926 58.6044 57.7141C58.2747 57.7325 57.9449 57.7325 57.6152 57.7141C57.5053 57.5671 57.4137 57.4016 57.3037 57.2545C56.5527 57.7325 55.6733 58.229 54.7757 57.9164C53.4567 57.7141 52.4492 56.2065 53.0354 54.9378C53.4018 53.9634 54.4643 53.5221 55.4352 53.4486C56.113 53.3934 56.7725 53.6324 57.4503 53.6692C57.377 52.8786 56.7908 52.1064 55.9298 52.1615C55.1787 52.0328 54.5559 52.4925 54.0612 53.0073C53.6949 52.8418 53.4017 52.6028 53.1453 52.3454ZM54.1895 55.8204C54.2444 56.4823 54.9589 56.85 55.5634 56.8132C56.516 56.7397 57.2854 55.9675 57.3404 55.0114C56.8274 54.5517 56.058 54.515 55.4169 54.5701C54.7757 54.6253 54.1162 55.1217 54.1895 55.8204ZM70.2554 51.6835C70.8417 51.3342 71.4462 50.8745 72.1973 50.9481C73.4613 50.8377 74.5971 51.9593 74.5971 53.1912C74.6154 54.6988 74.5971 56.1881 74.5971 57.6958C74.1758 57.7325 73.7544 57.7509 73.3331 57.7141C73.2781 56.2249 73.4063 54.7356 73.2598 53.2463C73.1865 52.2902 72.0141 51.9961 71.2447 52.2902C70.5669 52.5844 70.2005 53.3199 70.1822 54.0369C70.1455 55.2688 70.2005 56.4823 70.1822 57.7141C69.7425 57.7509 69.3212 57.7509 68.8815 57.7141C68.8632 55.5446 68.8632 53.3566 68.8815 51.1871C69.2845 51.1503 69.6692 51.1503 70.0722 51.2055C70.1272 51.2974 70.2188 51.5548 70.2554 51.6835ZM76.887 51.5364C78.1144 50.5803 80.0745 50.7458 81.1004 51.9225C81.7416 52.6947 82.0164 53.706 81.8881 54.7172C80.2394 54.7724 78.5724 54.7172 76.9236 54.7356C76.7771 55.9491 78.0228 56.9419 79.1769 56.7397C79.8547 56.7213 80.2577 56.1329 80.7157 55.7101C81.1187 55.6733 81.4485 55.9675 81.7782 56.1146C81.1187 57.7693 78.9388 58.4496 77.3816 57.6406C75.0917 56.5926 74.9268 53.0073 76.887 51.5364ZM76.9053 53.6324C78.0961 53.6876 79.3051 53.6876 80.5142 53.6324C80.4043 52.7315 79.5982 52.088 78.7006 52.1615C77.803 52.1064 77.1618 52.8602 76.9053 53.6324ZM85.2772 51.0216C85.7352 50.8745 86.2298 50.9481 86.7061 51.0216C86.7427 51.4629 86.7611 51.9041 86.7427 52.3454C86.2664 52.327 85.7718 52.1983 85.2955 52.3086C84.6177 52.5844 84.1597 53.2463 84.178 53.9818C84.1414 55.2136 84.1964 56.4271 84.178 57.659C83.7567 57.7141 83.317 57.7141 82.8957 57.6774C82.8774 55.5078 82.8774 53.3199 82.8957 51.1503C83.2254 51.1135 83.5735 51.1135 83.9033 51.1135C84.0132 51.279 84.1231 51.4445 84.2513 51.61C84.5994 51.4077 84.9475 51.2055 85.2772 51.0216ZM60.9493 51.8122C61.4256 51.5548 61.8469 51.1319 62.4148 51.1319C62.7079 51.1135 63.0193 51.1319 63.3124 51.1503C63.3308 51.5548 63.3308 51.9593 63.3308 52.3454C62.7629 52.4373 62.0851 52.2902 61.6271 52.7131C61.3157 53.0073 61.0225 53.3934 61.0225 53.8531C60.9676 55.1769 61.0592 56.5007 60.9859 57.8428C60.5829 57.8796 60.1615 57.8796 59.7402 57.8612C59.7036 55.6733 59.7036 53.4853 59.7402 51.3158C60.1066 51.279 60.4547 51.2974 60.821 51.3526C60.8394 51.4445 60.9126 51.6835 60.9493 51.8122Z" fill="white" stroke="white" stroke-miterlimit="10" stroke-width="0.1"/>
    <path d="M30.8691 5.69976C34.4963 1.93061 39.7906 -0.0367023 44.9749 0.165545C48.0159 0.367792 51.0569 1.1584 53.6582 2.79476C54.7391 3.47505 55.8199 4.1921 56.6626 5.14818C55.8382 6.10426 54.8856 6.95001 54.0063 7.86932C53.0903 8.77024 52.211 9.72632 51.2584 10.5905C49.7746 9.22989 47.9243 8.20027 45.9092 7.92448C43.8208 7.68546 41.6042 7.77739 39.699 8.73347C37.5556 9.72632 35.7787 11.3443 34.5879 13.3851C34.1849 14.0654 33.9101 14.8193 33.5804 15.5363C31.4553 13.9735 29.4219 12.282 27.3152 10.6824C28.1762 8.80701 29.3853 7.11549 30.8691 5.69976Z" fill="#EA4335"/>
    <path d="M27.3335 10.6641C29.4402 12.2637 31.4736 13.9368 33.5987 15.518C33.2872 17.044 32.8109 18.6069 33.104 20.1881C33.1956 21.0522 33.4521 21.898 33.5987 22.7437C31.9499 24.0491 30.2646 25.3362 28.6158 26.66C28.1945 26.9909 27.7548 27.2851 27.2785 27.5241C26.1244 25.2442 25.4649 22.7253 25.355 20.1697C25.2634 18.4965 25.3733 16.805 25.7031 15.1503C26.1061 13.6242 26.5274 12.0614 27.3335 10.6641Z" fill="#FBBC04"/>
    <path d="M44.2971 15.6652C49.4631 15.6652 54.6292 15.6652 59.7952 15.6652C60.4547 15.6652 61.1142 15.61 61.7737 15.7203C62.9094 21.3648 61.682 27.5977 57.9449 32.0472C57.5419 32.5252 57.1389 33.0584 56.5893 33.371C54.5192 31.8449 52.5591 30.2086 50.5073 28.6641C52.3026 27.3219 53.6765 25.2811 53.9147 23.0196C50.6905 22.9644 47.4663 23.038 44.2422 22.9828C44.1506 21.0707 44.2421 19.1401 44.2055 17.228C44.2238 16.7132 44.1322 16.18 44.2971 15.6652Z" fill="#4284F4"/>
    <path d="M28.6159 26.6784C30.2646 25.3547 31.95 24.0676 33.5987 22.7622C34.0017 23.516 34.2582 24.3618 34.7345 25.0789C36.2366 27.5426 38.6181 29.3628 41.4027 30.135C43.3445 30.5579 45.3596 30.5579 47.2831 30.0983C48.4189 29.8041 49.4631 29.2525 50.489 28.6825C52.5408 30.227 54.5009 31.8817 56.571 33.3894C56.0764 34.0329 55.3986 34.4742 54.7391 34.9338C51.6614 37.1218 47.851 37.9859 44.1322 38.0778C40.3768 38.0043 36.6213 36.9379 33.5254 34.7683C30.8508 32.9297 28.6891 30.4476 27.2602 27.5426C27.7548 27.3036 28.1945 27.0094 28.6159 26.6784Z" fill="#34A853"/>
    <path d="M3.11548 49.3117C4.43447 48.2637 6.33967 48.1902 7.87848 48.7602C8.42806 49.0176 9.05091 49.3301 9.3257 49.9369C9.06923 50.231 8.79444 50.5068 8.48301 50.7458C8.04335 50.3781 7.58537 49.992 7.03579 49.8082C5.66185 49.4037 4.03144 49.8265 3.18876 51.0216C2.47431 51.849 2.43767 53.0257 2.60255 54.0737C2.91397 55.6917 4.5627 56.8868 6.19311 56.7397C7.65865 56.7581 9.10587 55.5262 9.10587 54.0002C8.04336 53.9266 6.98084 54.0002 5.91832 53.9634C5.77177 53.6325 5.75345 53.2464 5.84505 52.897C7.3289 52.7499 8.8494 52.8419 10.3333 52.8419C10.4981 54.1841 10.2966 55.6733 9.27074 56.6478C7.62201 58.4128 4.63598 58.4312 2.85901 56.8868C0.82558 55.1585 0.587432 52.088 2.32776 50.0472C2.56591 49.7898 2.82237 49.5324 3.11548 49.3117ZM33.8002 48.6682C34.2215 48.5947 34.6612 48.5763 35.0825 48.6131C35.1375 51.6284 35.1008 54.6437 35.1008 57.659C34.6795 57.8061 34.2398 57.7326 33.8002 57.7142C33.7819 54.6989 33.8002 51.6835 33.8002 48.6682ZM13.7406 51.0584C14.6749 50.8562 15.7191 50.9665 16.5068 51.5364C18.0457 52.5477 18.467 54.8276 17.4961 56.372C16.9282 57.4568 15.6642 58.0267 14.4734 58.0267C13.6674 57.9348 12.843 57.659 12.2751 57.0707C11.3042 56.1514 10.9927 54.6437 11.3775 53.3934C11.6522 52.2351 12.6415 51.371 13.7406 51.0584ZM13.9055 52.3087C13.1361 52.6028 12.6232 53.3199 12.5865 54.1289C12.5132 54.9195 12.6598 55.8388 13.3376 56.3352C14.3818 57.2545 16.2504 56.6662 16.5801 55.324C16.745 54.4782 16.7633 53.4118 16.0489 52.7867C15.5542 52.18 14.6383 52.0696 13.9055 52.3087ZM21.105 51.0768C21.966 50.8929 22.9186 50.9113 23.688 51.3894C25.5016 52.3271 25.9779 54.9379 24.8238 56.5558C24.2375 57.5119 23.1018 58.0267 22.0026 58.0451C20.9584 57.9716 19.8776 57.5119 19.2914 56.611C18.7051 55.8388 18.6135 54.8276 18.7051 53.8899C18.8334 52.5661 19.8776 51.4629 21.105 51.0768ZM21.3981 52.2903C19.6761 52.8235 19.4562 55.4711 20.8851 56.4455C21.5813 56.9236 22.6621 56.9236 23.3033 56.3352C24.3475 55.5078 24.4024 53.7979 23.5414 52.8235C23.0102 52.2167 22.1308 52.0697 21.3981 52.2903ZM26.216 53.3751C26.5641 51.9961 27.8647 50.8194 29.3303 50.9665C30.0447 50.9113 30.6126 51.3894 31.1989 51.7203C31.2538 51.5364 31.3088 51.3526 31.3637 51.1687C31.7484 51.1503 32.1331 51.1503 32.4995 51.1687C32.5362 53.2647 32.4995 55.3791 32.5178 57.4752C32.5362 58.5048 32.1148 59.6263 31.2172 60.1963C30.4294 60.7111 29.4402 60.7111 28.5426 60.6192C27.535 60.4721 26.6923 59.7734 26.3809 58.799C26.6923 58.5599 27.0404 58.2658 27.4434 58.3393C27.7915 58.707 28.0846 59.1299 28.5426 59.3689C29.3669 59.7734 30.4478 59.4241 30.979 58.6886C31.2721 58.2474 31.2538 57.6958 31.2538 57.1994C30.576 57.6406 29.8066 58.1187 28.9639 58.0267C28.1212 57.898 27.2236 57.5303 26.7473 56.7765C26.0511 55.802 25.9229 54.515 26.216 53.3751ZM28.5792 52.327C27.1503 52.9889 26.9671 55.1217 27.9747 56.2249C28.5792 56.8316 29.4952 56.9603 30.2462 56.5558C31.6568 55.6917 31.6752 53.3199 30.3012 52.419C29.77 52.1432 29.1471 52.1064 28.5792 52.327ZM37.116 51.8858C37.7205 51.2423 38.5632 50.9113 39.4425 50.9665C40.5233 50.9113 41.5309 51.61 42.0805 52.5109C42.4469 53.1728 42.4835 53.945 42.4652 54.6989C40.8348 54.9011 39.1677 54.6989 37.519 54.7908C37.3724 56.041 38.7097 57.0523 39.8822 56.7581C40.56 56.6846 40.9264 56.0962 41.3294 55.6365C41.6774 55.7836 42.0072 55.9491 42.3369 56.0962C42.1171 57.0523 41.1462 57.6958 40.2302 57.9164C39.2593 58.2106 38.2151 57.898 37.4091 57.3465C36.5297 56.7029 36.2 55.563 36.0901 54.5334C36.1634 53.5957 36.4015 52.5661 37.116 51.8858ZM38.5265 52.3454C37.9586 52.5477 37.7022 53.1544 37.5373 53.6876C38.7281 53.706 39.9188 53.706 41.1096 53.6876C40.9813 53.3015 40.8897 52.8602 40.56 52.5845C40.0104 52.1248 39.186 52.1064 38.5265 52.3454Z" fill="white" stroke="white" stroke-miterlimit="10" stroke-width="0.1"/>
  </g>
  <defs>
    <clipPath id="clip0_178_2032">
      <rect fill="white" height="60.858" transform="translate(0.917175)" width="85.9172"/>
    </clipPath>
  </defs>
</svg>