<?xml version="1.0" encoding="utf-8"?>
<svg xmlns="http://www.w3.org/2000/svg" fill="none" height="61" viewBox="0 0 61 61" width="61">
  <path d="M49.4177 53.1464C49.4177 53.1464 48.1894 50.0057 47.87 48.6681C47.8577 48.6133 47.8454 48.5586 47.8349 48.5055C47.6155 47.4022 48.2789 46.4665 48.8685 45.5C50.2653 43.2112 50.2442 39.1075 50.8321 35.6435C50.969 34.8293 51.2024 34.051 51.4077 33.3479C51.5937 32.7612 51.7481 32.2309 51.8323 31.7417C52.1307 30.2278 50.5706 29.5179 49.2089 30.067C48.7632 30.2329 48.342 30.5323 48.0244 30.9753C46.1836 33.4334 46.0836 37.4807 45.9169 36.7058L45.5098 34.6634L44.6061 30.4057L43.6585 25.9308L42.6635 21.2334L42.5319 20.5937C42.4143 20.048 42.1107 19.5964 41.6878 19.2799C41.1894 18.9087 40.5261 18.7411 39.8628 18.8831C39.5592 18.9429 39.2679 19.0576 39.0258 19.2201C38.3133 19.7127 37.9202 20.5954 38.1063 21.4849L38.2379 22.1247L38.3976 22.8517V22.8654L39.2346 26.8203L40.1752 31.2884L40.3822 32.2925" stroke="#EBEAE1" stroke-linecap="round" stroke-linejoin="round" stroke-width="1.5"/>
  <path d="M35.6165 33.0604L35.4608 32.3094L34.5729 28.0142L34.4908 27.6207L33.9895 25.1972L33.5259 22.9576L33.5225 22.9457L33.3137 21.9375L32.7697 19.3045L32.6722 18.8361C32.6243 18.6028 32.6072 18.3678 32.6311 18.1396C32.6397 18.0289 32.6568 17.9233 32.6859 17.8143C32.7218 17.6474 32.7782 17.4805 32.8484 17.3255C33.1632 16.6391 33.7894 16.1129 34.5798 15.9511C35.2419 15.8217 35.8971 15.963 36.4189 16.3053C36.7542 16.525 37.0434 16.8316 37.2401 17.1944C37.3479 17.4038 37.43 17.6167 37.4796 17.85L37.7465 19.1734L38.1965 21.3193L38.3282 21.9596L38.4788 22.6852" stroke="#EBEAE1" stroke-linecap="round" stroke-linejoin="round" stroke-width="1.5"/>
  <path d="M33.4573 22.1527L32.898 19.5008C32.6236 18.198 31.3204 17.3593 29.9855 17.6274C28.6523 17.8955 27.794 19.1708 28.0684 20.4736L30.8103 33.4789" stroke="#EBEAE1" stroke-linecap="round" stroke-linejoin="round" stroke-width="1.5"/>
  <path d="M29.6939 27.6608L29.0921 24.6632C28.8652 23.538 27.7507 22.8201 26.5976 23.0652C25.5823 23.2792 25.0881 24.1869 25.0881 25.1637C25.0881 25.3 25.1016 25.4346 25.1251 25.5709C25.1251 25.5709 28.2903 41.8479 28.8954 44.8679C29.672 48.7559 31.8993 49.6671 32.6204 53.1462" stroke="#EBEAE1" stroke-linecap="round" stroke-linejoin="round" stroke-width="1.5"/>
  <path d="M32.0601 56.9125L31.365 53.1464H51.1725L51.8694 56.9125" stroke="#EBEAE1" stroke-linecap="round" stroke-linejoin="round" stroke-width="1.5"/>
  <path d="M11.5644 53.1464C11.5644 53.1464 12.7557 50.0057 13.0655 48.6681C13.0791 48.6133 13.0893 48.5586 13.0995 48.5055C13.3122 47.4022 12.6689 46.4665 12.0971 45.5C10.7425 43.2112 10.7629 39.1075 10.1928 35.6435C10.06 34.8293 9.83367 34.051 9.63455 33.3479C9.45416 32.7612 9.3044 32.2309 9.22271 31.7417C8.93339 30.2278 10.4463 29.5179 11.767 30.067C12.1992 30.2329 12.6077 30.5323 12.9157 30.9753C14.701 33.4334 14.798 37.4807 14.9579 36.7058L15.3528 34.6634L16.2292 30.4057L17.1482 25.9308L18.1132 21.2334L18.2408 20.5937C18.3548 20.048 18.6492 19.5964 19.0594 19.2799C19.5427 18.9087 20.186 18.7411 20.8293 18.8831C21.1237 18.9429 21.4062 19.0576 21.6411 19.2201C22.332 19.7127 22.7132 20.5954 22.5328 21.4849L22.4052 22.1247L22.2503 22.8517V22.8654L21.4386 26.8203L20.5264 31.2884L20.3256 32.2925" stroke="#EBEAE1" stroke-linecap="round" stroke-linejoin="round" stroke-width="1.5"/>
  <path d="M27.1152 23.0175L27.324 21.999L27.868 19.3391L27.9655 18.866C28.0134 18.6303 28.0305 18.3929 28.0066 18.1624C27.998 18.0505 27.9809 17.9439 27.9518 17.8337C27.9159 17.6651 27.8595 17.4965 27.7893 17.34C27.4745 16.6466 26.8484 16.115 26.0579 15.9516C25.3958 15.8208 24.7406 15.9636 24.2188 16.3094C23.8835 16.5314 23.5943 16.841 23.3976 17.2075C23.2898 17.4191 23.2077 17.6342 23.1581 17.8699L22.8912 19.2067L22.4412 21.3744L22.3095 22.0213L22.1589 22.7542" stroke="#EBEAE1" stroke-linecap="round" stroke-linejoin="round" stroke-width="1.5"/>
  <path d="M30.5281 48.5436C29.5597 49.9473 28.4941 51.0976 28.0173 53.1466" stroke="#EBEAE1" stroke-linecap="round" stroke-linejoin="round" stroke-width="1.5"/>
  <path d="M28.5776 56.9125L29.2727 53.1464H9.46346L8.76831 56.9125" stroke="#EBEAE1" stroke-linecap="round" stroke-linejoin="round" stroke-width="1.5"/>
  <path d="M17.9744 39.3373C19.483 40.5444 20.3544 43.6203 19.9801 45.6141" stroke="#EBEAE1" stroke-linecap="round" stroke-linejoin="round" stroke-width="1.5"/>
  <path d="M20.0667 10.0455L18.8113 7.53479" stroke="#EBEAE1" stroke-linecap="round" stroke-linejoin="round" stroke-width="1.5"/>
  <path d="M41.408 10.0455L42.6633 7.53479" stroke="#EBEAE1" stroke-linecap="round" stroke-linejoin="round" stroke-width="1.5"/>
  <path d="M49.3586 17.5775L51.0325 15.9037" stroke="#EBEAE1" stroke-linecap="round" stroke-linejoin="round" stroke-width="1.5"/>
  <path d="M12.116 17.5775L10.4421 15.9037" stroke="#EBEAE1" stroke-linecap="round" stroke-linejoin="round" stroke-width="1.5"/>
  <path d="M30.9465 7.11609V3.76843" stroke="#EBEAE1" stroke-linecap="round" stroke-linejoin="round" stroke-width="1.5"/>
</svg>